<svg width="12" height="12" viewBox="0 0 12 12" fill="none" xmlns="http://www.w3.org/2000/svg">
<path d="M4.20771 5.7926L4.20755 5.79245C4.11464 5.69953 4.00433 5.62582 3.88293 5.57554C3.76152 5.52525 3.6314 5.49937 3.5 5.49937C3.23462 5.49937 2.9801 5.60479 2.79245 5.79245C2.69953 5.88536 2.62582 5.99567 2.57554 6.11707C2.52525 6.23848 2.49937 6.3686 2.49937 6.5C2.49937 6.6314 2.52525 6.76152 2.57554 6.88293C2.62582 7.00433 2.69953 7.11464 2.79245 7.20755L4.292 8.70711C4.29207 8.70718 4.29214 8.70725 4.29221 8.70732C4.38506 8.80035 4.49534 8.87416 4.61673 8.92453C4.73822 8.97494 4.86847 9.00089 5 9.00089C5.13153 9.00089 5.26178 8.97494 5.38327 8.92453C5.50466 8.87416 5.61494 8.80035 5.70779 8.70732C5.70786 8.70725 5.70793 8.70718 5.708 8.70711L9.20755 5.20755C9.39521 5.0199 9.50063 4.76538 9.50063 4.5C9.50063 4.23462 9.39521 3.9801 9.20755 3.79245C9.0199 3.60479 8.76538 3.49937 8.5 3.49937C8.23462 3.49937 7.9801 3.60479 7.79245 3.79245L7.79239 3.7925L5.0001 6.58568L4.20771 5.7926ZM1.08579 1.08579C1.46086 0.710714 1.96957 0.5 2.5 0.5H9.5C10.0304 0.5 10.5391 0.710714 10.9142 1.08579C11.2893 1.46086 11.5 1.96957 11.5 2.5V9.5C11.5 10.0304 11.2893 10.5391 10.9142 10.9142C10.5391 11.2893 10.0304 11.5 9.5 11.5H2.5C1.96957 11.5 1.46086 11.2893 1.08579 10.9142C0.710714 10.5391 0.5 10.0304 0.5 9.5V2.5C0.5 1.96957 0.710714 1.46086 1.08579 1.08579Z" fill="#EEEEEE" stroke="black"/>
</svg>
